<?xml version="1.0" encoding="utf-8"?>
<!-- Generator: Adobe Illustrator 16.0.0, SVG Export Plug-In . SVG Version: 6.00 Build 0)  -->
<!DOCTYPE svg PUBLIC "-//W3C//DTD SVG 1.1//EN" "http://www.w3.org/Graphics/SVG/1.1/DTD/svg11.dtd">
<svg version="1.1" id="图层_1" xmlns="http://www.w3.org/2000/svg" xmlns:xlink="http://www.w3.org/1999/xlink" x="0px" y="0px"
	 width="275.458px" height="100.498px" viewBox="0 0 275.458 100.498" enable-background="new 0 0 275.458 100.498"
	 xml:space="preserve">
<g>
	<g>
		<g>
			<g>
				<path fill="#7D8488" d="M171.359,89.749c0,0.817-0.366,1.135-1.188,1.135h-2.4c-0.836,0-1.204-0.317-1.204-1.135v-7.013
					c0-0.819,0.368-1.146,1.204-1.146h2.4c0.822,0,1.188,0.326,1.188,1.146V89.749z M167.614,86.526v3.014
					c0,0.279,0.144,0.354,0.412,0.354h1.876c0.269,0,0.414-0.075,0.414-0.354v-3.014H167.614z M170.316,85.577v-2.642
					c0-0.282-0.146-0.354-0.414-0.354h-1.876c-0.269,0-0.412,0.072-0.412,0.354l0.004,2.642H170.316z M173.669,89.071
					c-0.043,0.184-0.072,0.362-0.112,0.536c-0.383,1.714-1.249,2.984-2.237,3.903c-0.141,0.125-0.297,0.2-0.453,0.2
					c-0.126,0-0.267-0.058-0.38-0.187c-0.101-0.084-0.159-0.21-0.155-0.365c0-0.156,0.055-0.326,0.226-0.464
					c0.948-0.825,1.725-2.055,2.009-3.428c0.212-1.003,0.296-2.206,0.297-4.565l-0.001-2.306c0-0.863,0.395-1.173,1.245-1.173h3.335
					c0.851,0,1.247,0.31,1.247,1.173v9.785c0,0.96-0.425,1.413-1.586,1.413c-0.58,0-1.143-0.07-1.567-0.168
					c-0.255-0.043-0.384-0.227-0.384-0.479c0-0.061,0-0.115,0.014-0.172c0.086-0.283,0.257-0.396,0.439-0.396
					c0.04,0,0.088,0,0.129,0.012c0.393,0.117,0.832,0.177,1.202,0.177c0.523,0,0.678-0.118,0.678-0.67v-2.827H173.669z
					 M173.923,85.609c-0.027,0.817-0.043,1.653-0.129,2.472h3.819v-2.472H173.923z M177.613,82.581c0-0.281-0.113-0.367-0.382-0.367
					h-2.915c-0.253,0-0.394,0.086-0.394,0.367v2.035h3.69V82.581z"/>
				<path fill="#7D8488" d="M170.878,93.761c-0.159,0-0.313-0.074-0.429-0.208c-0.11-0.089-0.171-0.235-0.171-0.403
					c0-0.199,0.083-0.369,0.24-0.5c1-0.867,1.729-2.105,1.992-3.398c0.218-1.021,0.298-2.254,0.298-4.557v-2.307
					c0-0.854,0.387-1.217,1.288-1.217h3.338c0.475,0,0.796,0.098,1.008,0.306c0.2,0.197,0.297,0.502,0.297,0.929v9.787
					c0,1.018-0.486,1.456-1.623,1.456c-0.542,0-1.119-0.065-1.585-0.174c-0.123-0.021-0.229-0.071-0.302-0.156
					c-0.086-0.096-0.13-0.227-0.13-0.383c0-0.063,0-0.122,0.017-0.179c0.083-0.278,0.253-0.43,0.479-0.43
					c0.045,0,0.098,0,0.146,0.02c0.369,0.104,0.804,0.164,1.185,0.164c0.481,0,0.635-0.082,0.635-0.62v-2.769h-3.849
					c-0.016,0.077-0.032,0.146-0.042,0.219c-0.021,0.098-0.041,0.199-0.066,0.289c-0.342,1.535-1.096,2.859-2.243,3.923
					C171.209,93.687,171.041,93.761,170.878,93.761z M174.115,81.274c-0.854,0-1.201,0.329-1.201,1.131v2.305
					c0,2.314-0.081,3.555-0.298,4.576c-0.269,1.313-1.005,2.568-2.021,3.443c-0.142,0.122-0.215,0.266-0.215,0.438
					c0,0.137,0.046,0.246,0.137,0.324c0.213,0.234,0.511,0.21,0.763-0.021c1.137-1.053,1.885-2.361,2.223-3.88
					c0.021-0.095,0.043-0.187,0.063-0.287c0.014-0.081,0.031-0.166,0.05-0.249l0.008-0.033h4.046l-0.002,0.063v2.822
					c0,0.56-0.16,0.711-0.725,0.711c-0.393,0-0.837-0.063-1.219-0.174c-0.031-0.009-0.071-0.009-0.11-0.009
					c-0.183,0-0.326,0.127-0.394,0.366c-0.014,0.045-0.014,0.091-0.016,0.148c0.002,0.131,0.038,0.238,0.099,0.309
					c0.054,0.062,0.133,0.104,0.232,0.118c0.461,0.104,1.027,0.17,1.559,0.17c1.098,0,1.545-0.396,1.545-1.374v-9.783
					c0-0.395-0.09-0.672-0.265-0.844c-0.186-0.182-0.477-0.27-0.92-0.27H174.115z M170.184,90.932h-2.405
					c-0.459,0-0.768-0.091-0.975-0.291c-0.195-0.192-0.289-0.488-0.289-0.898v-7.015c0-0.834,0.372-1.188,1.248-1.188h2.401
					c0.449,0,0.754,0.092,0.955,0.29c0.199,0.202,0.294,0.496,0.294,0.915v7.014C171.413,90.581,171.045,90.932,170.184,90.932z
					 M167.778,81.642c-0.824,0-1.157,0.323-1.159,1.104v7.014c0.002,0.381,0.081,0.646,0.252,0.815
					c0.18,0.171,0.46,0.255,0.892,0.255h2.401c0.815,0,1.144-0.318,1.144-1.087v-7.015c0-0.387-0.079-0.658-0.254-0.827
					c-0.176-0.173-0.462-0.259-0.87-0.259H167.778z M169.915,89.942h-1.881c-0.124,0-0.271-0.01-0.369-0.107
					c-0.069-0.066-0.104-0.168-0.104-0.306v-3.056h2.808v0.063v3.011C170.369,89.897,170.151,89.942,169.915,89.942z
					 M167.665,86.579v2.968c0,0.106,0.023,0.181,0.065,0.222c0.048,0.048,0.139,0.066,0.286,0.066h1.879
					c0.275,0,0.369-0.074,0.369-0.306v-2.95H167.665z M177.667,88.134h-3.934l0.008-0.064c0.07-0.678,0.095-1.362,0.112-2.029
					c0.005-0.151,0.013-0.297,0.013-0.445l0.001-0.041h3.8v0.063V88.134z M173.854,88.032h3.706v-2.374h-3.589
					c0,0.136-0.005,0.27-0.01,0.401C173.938,86.707,173.918,87.376,173.854,88.032z M170.369,85.63h-2.808v-0.055v-2.648
					c0-0.35,0.217-0.396,0.455-0.396h1.879c0.12,0,0.275,0.012,0.371,0.107c0.068,0.068,0.103,0.168,0.103,0.308V85.63z
					 M167.667,85.527h2.598v-2.601c0-0.108-0.021-0.182-0.064-0.226c-0.049-0.046-0.139-0.067-0.285-0.067h-1.881
					c-0.271,0-0.369,0.078-0.369,0.312L167.667,85.527z M177.667,84.67h-3.801v-0.06v-2.035c0-0.287,0.137-0.415,0.445-0.415h2.91
					c0.163,0,0.269,0.035,0.341,0.104c0.07,0.068,0.104,0.17,0.104,0.324V84.67z M173.976,84.565h3.584v-1.99
					c0-0.121-0.021-0.203-0.064-0.246s-0.126-0.064-0.254-0.064h-2.912c-0.259,0-0.354,0.09-0.355,0.324L173.976,84.565z"/>
			</g>
			<g>
				<path fill="#7D8488" d="M189.615,87.812c0-0.563,0.033-1.201,0.103-1.723c-0.227,0.409-0.442,0.764-0.623,1.02
					c-0.156,0.211-0.354,0.309-0.523,0.309c-0.128,0-0.256-0.041-0.354-0.129c-0.128-0.111-0.197-0.24-0.197-0.395
					c0-0.143,0.058-0.308,0.197-0.455c1.202-1.386,2.134-3.52,2.574-5.258c0.083-0.299,0.28-0.41,0.525-0.41
					c0.041,0,0.096,0,0.155,0.015c0.236,0.043,0.391,0.198,0.391,0.438c0,0.055,0.003,0.115-0.027,0.171
					c-0.226,0.946-0.621,2.021-1.132,3.069v9.033c0,0.271-0.222,0.396-0.548,0.396c-0.328,0-0.54-0.125-0.54-0.396V87.812z
					 M193.815,86.173c0.044,0,0.085,0,0.144,0.013c0.268,0.043,0.45,0.199,0.45,0.495c0,0.029,0,0.07,0,0.104
					c-0.254,1.735-0.79,3.545-1.494,4.874c-0.116,0.259-0.314,0.367-0.525,0.367c-0.085,0-0.185-0.027-0.287-0.071
					c-0.182-0.084-0.281-0.252-0.281-0.438c0-0.109,0.031-0.228,0.1-0.32c0.68-1.221,1.16-2.86,1.416-4.586
					C193.364,86.327,193.548,86.173,193.815,86.173z M193.869,83.854c-0.406,0.861-0.885,1.666-1.382,2.291
					c-0.129,0.152-0.282,0.227-0.439,0.227c-0.112,0-0.212-0.03-0.295-0.101c-0.157-0.11-0.227-0.27-0.227-0.409
					c0-0.125,0.057-0.253,0.14-0.367c0.921-1.076,1.726-2.713,2.181-4.287c0.069-0.236,0.253-0.367,0.477-0.367
					c0.061,0,0.103,0,0.159,0.016c0.252,0.055,0.365,0.209,0.365,0.41c0.005,0.057-0.013,0.098-0.025,0.154
					c-0.13,0.48-0.313,0.962-0.511,1.461h5.602c0.79,0,1.159,0.364,1.159,0.873c0,0.211-0.057,0.439-0.185,0.692
					c-0.255,0.507-0.579,1.005-0.904,1.401c-0.143,0.168-0.313,0.24-0.469,0.24c-0.111,0-0.224-0.044-0.324-0.112
					c-0.114-0.088-0.184-0.215-0.184-0.354c0-0.117,0.041-0.23,0.127-0.329c0.27-0.309,0.55-0.693,0.746-1.1
					c0.047-0.1,0.072-0.17,0.072-0.229c0-0.084-0.084-0.111-0.269-0.111h-2.724l-0.003,8.469c0.003,1.031-0.454,1.371-1.544,1.371
					c-0.463,0-0.987-0.059-1.301-0.127c-0.212-0.057-0.396-0.223-0.396-0.494c0.002-0.043,0.002-0.07,0.019-0.112
					c0.036-0.287,0.252-0.426,0.449-0.426c0.03,0,0.057,0,0.103,0.015c0.237,0.055,0.664,0.124,0.959,0.124
					c0.505,0,0.633-0.105,0.633-0.532v-8.287H193.869z M198.118,86.657c-0.003-0.26,0.181-0.429,0.42-0.472
					c0.06-0.013,0.113-0.013,0.17-0.013c0.243,0,0.398,0.125,0.469,0.438c0.395,1.641,0.978,3.284,1.739,4.51
					c0.057,0.113,0.1,0.258,0.1,0.382c0,0.185-0.073,0.368-0.229,0.452c-0.11,0.057-0.238,0.088-0.336,0.088
					c-0.201,0-0.368-0.088-0.467-0.27c-0.793-1.329-1.445-3.309-1.839-4.963C198.131,86.751,198.115,86.696,198.118,86.657z"/>
				<path fill="#7D8488" d="M190.161,93.945c-0.213,0-0.374-0.053-0.479-0.153c-0.08-0.078-0.117-0.182-0.117-0.307l-0.003-5.681
					c0.003-0.521,0.025-1.021,0.065-1.449c-0.186,0.325-0.353,0.591-0.49,0.782c-0.15,0.209-0.356,0.331-0.56,0.331
					c-0.147,0-0.284-0.05-0.39-0.143c-0.15-0.132-0.224-0.278-0.224-0.442c0-0.172,0.077-0.348,0.211-0.481
					c1.291-1.487,2.173-3.683,2.563-5.241c0.085-0.287,0.281-0.441,0.564-0.441c0.045,0,0.108,0,0.173,0.014
					c0.271,0.051,0.44,0.242,0.44,0.502c0,0.054,0,0.124-0.035,0.188c-0.221,0.946-0.612,2.002-1.123,3.061v9.023
					C190.759,93.784,190.542,93.945,190.161,93.945z M189.807,85.806l-0.041,0.299c-0.064,0.475-0.097,1.084-0.097,1.714v5.688
					c0,0.091,0.029,0.162,0.081,0.219c0.077,0.076,0.217,0.115,0.396,0.115c0.322,0,0.505-0.127,0.505-0.355l0.005-9.053
					c0.514-1.049,0.902-2.106,1.131-3.06c0.028-0.057,0.028-0.104,0.025-0.159c0-0.205-0.12-0.338-0.34-0.377
					c-0.055-0.017-0.107-0.017-0.149-0.017c-0.248,0-0.41,0.128-0.481,0.382c-0.396,1.566-1.278,3.775-2.582,5.278
					c-0.117,0.12-0.187,0.272-0.187,0.421c0,0.135,0.058,0.246,0.177,0.352c0.079,0.073,0.194,0.113,0.313,0.113
					c0.169,0,0.353-0.109,0.489-0.295c0.168-0.234,0.377-0.578,0.618-1.017L189.807,85.806z M195.424,93.747
					c-0.444,0-0.975-0.053-1.312-0.131c-0.271-0.071-0.447-0.289-0.447-0.551c0-0.049,0.002-0.082,0.016-0.13
					c0.047-0.308,0.288-0.45,0.496-0.45c0.027,0,0.062,0,0.114,0.016c0.209,0.049,0.642,0.125,0.946,0.125
					c0.482,0,0.591-0.096,0.591-0.494v-8.229h-1.917c-0.42,0.888-0.9,1.674-1.379,2.277c-0.132,0.157-0.292,0.243-0.472,0.243
					c-0.138,0-0.246-0.039-0.338-0.116c-0.154-0.114-0.246-0.281-0.246-0.458c0-0.122,0.05-0.258,0.146-0.393
					c0.89-1.038,1.698-2.632,2.171-4.271c0.072-0.249,0.271-0.396,0.522-0.396c0.058,0,0.109,0,0.17,0.018
					c0.263,0.057,0.413,0.226,0.413,0.467c0,0.053-0.01,0.096-0.02,0.139l-0.01,0.029c-0.113,0.438-0.275,0.873-0.479,1.383h5.514
					c0.432,0,0.761,0.107,0.975,0.316c0.159,0.162,0.249,0.373,0.249,0.622c-0.007,0.229-0.066,0.458-0.192,0.712
					c-0.248,0.496-0.57,0.995-0.909,1.406c-0.144,0.166-0.32,0.258-0.502,0.258c-0.119,0-0.25-0.047-0.359-0.127
					c-0.136-0.098-0.209-0.245-0.209-0.403c0-0.126,0.046-0.245,0.135-0.352c0.325-0.371,0.574-0.741,0.743-1.093
					c0.041-0.09,0.069-0.164,0.069-0.21c0-0.014-0.006-0.014-0.006-0.014c-0.018-0.018-0.055-0.038-0.203-0.038h-2.686l-0.002,8.432
					C197.009,93.364,196.577,93.747,195.424,93.747z M194.191,92.587c-0.167,0-0.369,0.122-0.406,0.391
					c-0.016,0.039-0.016,0.062-0.016,0.102c0,0.32,0.269,0.418,0.351,0.438c0.324,0.074,0.854,0.129,1.283,0.129
					c1.108,0,1.5-0.352,1.5-1.33v-8.514h2.774c0.152,0,0.235,0.02,0.283,0.07c0.022,0.018,0.045,0.052,0.045,0.104
					c0,0.062-0.028,0.134-0.071,0.243c-0.177,0.359-0.431,0.734-0.758,1.115c-0.078,0.086-0.122,0.188-0.122,0.295
					c0,0.117,0.061,0.23,0.162,0.305c0.24,0.174,0.53,0.11,0.726-0.121c0.333-0.41,0.651-0.905,0.897-1.396
					c0.122-0.24,0.179-0.462,0.179-0.672c0-0.219-0.068-0.4-0.212-0.535c-0.185-0.184-0.488-0.281-0.885-0.281h-5.695l0.034-0.075
					c0.218-0.542,0.388-0.995,0.509-1.455l0.01-0.025c0.009-0.042,0.021-0.075,0.017-0.116c0-0.186-0.108-0.303-0.317-0.354
					c-0.052-0.008-0.091-0.008-0.143-0.008c-0.216,0-0.376,0.124-0.438,0.34c-0.478,1.646-1.297,3.252-2.189,4.296
					c-0.085,0.116-0.133,0.23-0.133,0.339c0,0.137,0.077,0.27,0.202,0.363c0.075,0.059,0.157,0.084,0.262,0.084
					c0.153,0,0.291-0.07,0.407-0.209c0.477-0.605,0.956-1.396,1.379-2.285l0.013-0.021h2.096v0.061v8.287
					c0,0.447-0.152,0.58-0.681,0.58c-0.294,0-0.709-0.068-0.972-0.129C194.24,92.587,194.22,92.587,194.191,92.587z M200.457,92.093
					c-0.23,0-0.416-0.109-0.521-0.305c-0.985-1.65-1.617-4.027-1.843-4.976c-0.017-0.062-0.028-0.122-0.028-0.17
					c0-0.258,0.179-0.457,0.457-0.509c0.059-0.012,0.119-0.012,0.177-0.012c0.282,0,0.456,0.158,0.527,0.485
					c0.305,1.269,0.857,3.081,1.735,4.491c0.067,0.143,0.105,0.289,0.105,0.414c0,0.223-0.092,0.404-0.247,0.488
					C200.709,92.056,200.572,92.093,200.457,92.093z M198.719,86.226c-0.055,0-0.108,0-0.159,0.011
					c-0.239,0.042-0.393,0.209-0.392,0.428c-0.001,0.032,0.013,0.087,0.025,0.14c0.228,0.943,0.854,3.31,1.833,4.949
					c0.105,0.193,0.284,0.234,0.41,0.234c0.101,0,0.222-0.033,0.322-0.078c0.126-0.07,0.204-0.227,0.204-0.412
					c0-0.111-0.035-0.243-0.096-0.359c-0.879-1.42-1.434-3.245-1.742-4.525C199.064,86.342,198.94,86.226,198.719,86.226z
					 M192.4,92.079c-0.089,0-0.191-0.024-0.305-0.078c-0.199-0.092-0.326-0.279-0.326-0.494c0-0.133,0.036-0.253,0.108-0.349
					c0.642-1.151,1.142-2.774,1.402-4.562c0.034-0.299,0.23-0.475,0.524-0.475c0.047,0,0.093,0,0.159,0.015
					c0.156,0.024,0.285,0.089,0.372,0.188c0.083,0.095,0.129,0.22,0.129,0.366v0.098c-0.269,1.817-0.815,3.604-1.509,4.901
					C192.849,91.94,192.649,92.079,192.4,92.079z M193.825,86.226c-0.249,0-0.41,0.146-0.44,0.398
					c-0.264,1.8-0.767,3.434-1.415,4.598c-0.064,0.089-0.095,0.191-0.095,0.307c0,0.166,0.092,0.311,0.246,0.381
					c0.103,0.045,0.188,0.066,0.257,0.066c0.211,0,0.388-0.121,0.486-0.343c0.687-1.296,1.231-3.063,1.494-4.866v-0.09
					c0-0.123-0.035-0.221-0.098-0.292c-0.065-0.077-0.169-0.124-0.301-0.148C193.905,86.226,193.866,86.226,193.825,86.226z"/>
			</g>
			<g>
				<path fill="#7D8488" d="M214.306,82.847c0.807,0,1.189,0.316,1.189,1.104v7.792c0,0.807-0.397,1.145-1.189,1.145h-2.446
					c-0.806,0-1.203-0.338-1.203-1.145v-7.792c0-0.788,0.38-1.104,1.203-1.104h0.479c0.229-0.577,0.396-1.2,0.526-1.722
					c0.058-0.214,0.224-0.325,0.466-0.325c0.056,0,0.126,0,0.185,0.014c0.299,0.061,0.426,0.195,0.422,0.424
					c0,0.041,0,0.086-0.013,0.111c-0.127,0.481-0.311,1.048-0.509,1.498H214.306z M211.729,91.517c0,0.325,0.144,0.4,0.426,0.4
					h1.852c0.27,0,0.412-0.075,0.412-0.4v-3.42h-2.689V91.517z M214.419,87.149v-2.955c0-0.313-0.143-0.383-0.412-0.383h-1.852
					c-0.282,0-0.426,0.07-0.426,0.383v2.955H214.419z M217.911,83.867c-0.353,0.708-0.749,1.373-1.16,1.87
					c-0.111,0.139-0.267,0.195-0.425,0.195c-0.139,0-0.295-0.057-0.396-0.145c-0.097-0.096-0.156-0.222-0.158-0.365
					c0-0.143,0.046-0.281,0.158-0.395c0.749-0.878,1.486-2.432,1.837-3.877c0.071-0.27,0.269-0.366,0.497-0.366
					c0.058,0,0.113,0,0.172,0.015c0.226,0.041,0.396,0.209,0.396,0.45c0,0.06,0,0.099-0.015,0.161
					c-0.13,0.462-0.285,0.93-0.453,1.411h3.408c0.877,0,1.258,0.38,1.258,1.253c0,0.104,0,0.199,0,0.287
					c0,4.069-0.293,6.637-0.749,8.06c-0.296,0.933-0.92,1.257-1.938,1.257c-0.608,0-1.273-0.084-1.753-0.209
					c-0.227-0.057-0.34-0.254-0.338-0.496c-0.002-0.056,0.012-0.129,0.024-0.197c0.07-0.256,0.255-0.385,0.47-0.385
					c0.053,0,0.111,0.018,0.17,0.03c0.354,0.113,0.818,0.183,1.34,0.183c0.611,0,0.891-0.137,1.061-0.775
					c0.341-1.23,0.594-3.76,0.594-7.523c0-0.34-0.139-0.438-0.466-0.438H217.911z M217.896,85.747c0.129,0,0.256,0.041,0.357,0.172
					c0.705,0.848,1.385,2.051,1.806,2.955c0.048,0.086,0.058,0.17,0.058,0.254c0,0.199-0.097,0.381-0.296,0.479
					c-0.097,0.044-0.213,0.073-0.312,0.073c-0.181,0-0.368-0.1-0.467-0.325c-0.354-0.808-0.989-1.994-1.625-2.815
					c-0.071-0.102-0.111-0.198-0.111-0.312c0-0.14,0.066-0.282,0.209-0.366C217.628,85.788,217.768,85.747,217.896,85.747z"/>
				<path fill="#7D8488" d="M220.353,93.731c-0.589,0-1.27-0.078-1.77-0.215c-0.236-0.057-0.383-0.269-0.383-0.551
					c0-0.055,0.009-0.114,0.021-0.186l0.008-0.023c0.067-0.258,0.261-0.414,0.51-0.414c0.061,0,0.117,0.016,0.178,0.029
					c0.368,0.118,0.841,0.182,1.333,0.182c0.563,0,0.847-0.106,1.021-0.748c0.375-1.362,0.589-4.102,0.589-7.508
					c0-0.145-0.024-0.238-0.083-0.297c-0.055-0.059-0.158-0.081-0.32-0.081h-3.509c-0.389,0.774-0.775,1.395-1.153,1.849
					c-0.143,0.178-0.326,0.216-0.455,0.216c-0.156,0-0.326-0.057-0.436-0.159c-0.121-0.117-0.181-0.259-0.181-0.408
					c0-0.172,0.057-0.318,0.17-0.428c0.738-0.865,1.475-2.414,1.825-3.854c0.068-0.26,0.261-0.402,0.538-0.402
					c0.062,0,0.117,0,0.181,0.017c0.268,0.048,0.445,0.252,0.445,0.514c0,0.056,0,0.101-0.016,0.163
					c-0.104,0.39-0.239,0.803-0.43,1.346h3.325c0.454,0,0.78,0.1,0.999,0.313c0.216,0.215,0.321,0.543,0.321,1.005v0.278
					c0,3.787-0.25,6.503-0.748,8.079C222.048,93.347,221.456,93.731,220.353,93.731z M218.754,92.447
					c-0.205,0-0.359,0.131-0.425,0.351l-0.006,0.021c-0.009,0.061-0.021,0.116-0.021,0.164c0,0.108,0.029,0.367,0.293,0.438
					c0.493,0.129,1.155,0.207,1.739,0.207c1.055,0,1.624-0.366,1.898-1.23c0.495-1.562,0.746-4.27,0.744-8.045v-0.28
					c0-0.431-0.091-0.729-0.283-0.921c-0.191-0.188-0.488-0.279-0.914-0.279h-3.493l0.028-0.074c0.203-0.574,0.341-1.01,0.452-1.412
					c0.012-0.047,0.012-0.088,0.012-0.14c0-0.202-0.136-0.356-0.342-0.396c-0.059-0.014-0.107-0.014-0.163-0.014
					c-0.168,0-0.378,0.059-0.452,0.338c-0.354,1.451-1.098,3.012-1.847,3.893c-0.097,0.092-0.147,0.219-0.147,0.367
					c0,0.119,0.051,0.232,0.14,0.322c0.085,0.076,0.227,0.125,0.349,0.125c0.115,0,0.272-0.033,0.391-0.182
					c0.379-0.456,0.768-1.084,1.157-1.863l0.01-0.021h3.563c0.201,0,0.325,0.04,0.41,0.12c0.078,0.078,0.12,0.199,0.12,0.379
					c0,3.416-0.218,6.163-0.597,7.531c-0.183,0.684-0.516,0.813-1.103,0.813c-0.504,0-0.987-0.067-1.36-0.189
					C218.854,92.46,218.802,92.447,218.754,92.447z M214.311,92.936h-2.439c-0.442,0-0.757-0.095-0.969-0.3
					c-0.197-0.199-0.297-0.492-0.297-0.9v-7.793c0-0.791,0.383-1.142,1.246-1.142h0.446c0.24-0.616,0.409-1.263,0.514-1.693
					c0.063-0.229,0.248-0.36,0.511-0.36c0.056,0,0.134,0,0.197,0.018c0.31,0.056,0.472,0.223,0.469,0.481
					c0.003,0.052,0,0.096-0.017,0.135c-0.131,0.487-0.305,1.011-0.477,1.42h0.803c0.441,0,0.759,0.093,0.962,0.292
					c0.193,0.189,0.288,0.473,0.288,0.873v7.787C215.546,92.561,215.155,92.936,214.311,92.936z M211.871,82.901
					c-0.816,0-1.163,0.317-1.163,1.064v7.787c0,0.375,0.086,0.642,0.264,0.818c0.186,0.181,0.473,0.269,0.88,0.269h2.446
					c0.789,0,1.142-0.341,1.142-1.104v-7.793c0-0.361-0.08-0.617-0.249-0.779c-0.178-0.178-0.459-0.262-0.88-0.262h-0.98
					l0.036-0.079c0.18-0.411,0.367-0.967,0.506-1.491c0.012-0.028,0.012-0.071,0.012-0.105c0-0.201-0.109-0.311-0.373-0.361
					c-0.051-0.014-0.119-0.014-0.171-0.014c-0.226,0-0.375,0.104-0.429,0.295c-0.105,0.443-0.276,1.102-0.523,1.729l-0.01,0.026
					H211.871z M214.02,91.964h-1.855c-0.131,0-0.279-0.016-0.374-0.104c-0.076-0.077-0.108-0.188-0.108-0.353v-3.462h2.789v0.062
					v3.422C214.471,91.891,214.298,91.964,214.02,91.964z M211.782,88.147l0.003,3.381c0,0.127,0.024,0.215,0.07,0.26
					c0.048,0.051,0.138,0.075,0.29,0.075h1.852c0.243,0,0.371-0.058,0.371-0.356v-3.359H211.782z M219.52,89.73
					c-0.227,0-0.424-0.136-0.527-0.362c-0.355-0.816-0.992-2-1.619-2.8c-0.085-0.123-0.12-0.233-0.12-0.349
					c0-0.168,0.084-0.316,0.231-0.404c0.119-0.072,0.269-0.115,0.402-0.115c0.166,0,0.308,0.064,0.401,0.193
					c0.905,1.084,1.622,2.545,1.82,2.969c0.038,0.079,0.061,0.174,0.061,0.277c0,0.227-0.115,0.414-0.322,0.517
					C219.737,89.702,219.619,89.73,219.52,89.73z M217.904,85.8c-0.118,0-0.248,0.037-0.354,0.106
					c-0.121,0.073-0.193,0.198-0.193,0.33c0,0.097,0.029,0.183,0.103,0.28c0.623,0.81,1.271,2.003,1.635,2.824
					c0.077,0.184,0.224,0.288,0.407,0.288c0.088,0,0.193-0.026,0.293-0.068c0.169-0.084,0.273-0.249,0.273-0.442
					c0-0.086-0.018-0.159-0.051-0.227c-0.199-0.424-0.91-1.873-1.804-2.945C218.136,85.849,218.035,85.8,217.904,85.8z
					 M214.471,87.199h-2.794l0.005-0.062v-2.955c-0.005-0.35,0.175-0.423,0.464-0.423h1.852c0.13,0,0.274,0.015,0.366,0.107
					c0.071,0.074,0.107,0.179,0.107,0.332V87.199z M211.782,87.096h2.586v-2.913c0-0.123-0.027-0.202-0.07-0.254
					c-0.053-0.044-0.137-0.066-0.278-0.066h-1.853c-0.264,0-0.385,0.051-0.385,0.337V87.096z"/>
			</g>
			<g>
				<path fill="#7D8488" d="M234.836,82.413c-0.437,0-0.594,0.139-0.594,0.563c0,2.135-0.026,3.936-0.126,5.529
					c-0.129,2.079-0.354,3.425-0.951,4.766c-0.111,0.254-0.281,0.383-0.492,0.383c-0.084,0-0.197-0.03-0.312-0.07
					c-0.212-0.086-0.325-0.238-0.325-0.441c0-0.111,0.029-0.224,0.085-0.352c0.595-1.313,0.819-2.701,0.933-4.625
					c0.084-1.455,0.102-3.265,0.102-5.459c0-0.876,0.479-1.285,1.329-1.285h10.478c0.286,0,0.436,0.195,0.436,0.496
					c0,0.297-0.149,0.496-0.436,0.496H234.836z M239.958,91.646c0.069-0.013,0.126-0.029,0.181-0.029c0.2,0,0.342,0.102,0.367,0.338
					c0.015,0.044,0.015,0.088,0.015,0.128c0,0.214-0.114,0.368-0.354,0.438c-1.654,0.44-3.492,0.777-5.19,0.99
					c-0.026,0-0.04,0-0.066,0c-0.242,0-0.453-0.127-0.51-0.438c0-0.043,0-0.07,0-0.1c0-0.278,0.166-0.424,0.437-0.453
					c0.922-0.099,1.896-0.225,2.856-0.409c0.367-0.79,0.649-1.604,0.822-2.331c0.07-0.24,0.209-0.354,0.423-0.354
					c0.056,0,0.113,0.007,0.183,0.025c0.258,0.057,0.384,0.212,0.384,0.406c0,0.047,0,0.09-0.014,0.146
					c-0.2,0.623-0.451,1.27-0.736,1.912C239.161,91.829,239.558,91.743,239.958,91.646z M236.039,89.427
					c0.182,0,0.309,0.082,0.383,0.237c0.28,0.54,0.505,1.163,0.632,1.642c0.016,0.04,0.016,0.072,0.016,0.111
					c0,0.199-0.129,0.355-0.38,0.412c-0.072,0.013-0.144,0.03-0.215,0.03c-0.2,0-0.335-0.087-0.382-0.271
					c-0.112-0.453-0.335-1.045-0.592-1.566c-0.013-0.047-0.025-0.105-0.025-0.143c0-0.185,0.125-0.34,0.336-0.412
					C235.897,89.434,235.965,89.427,236.039,89.427z M239.914,87.979c0,0.752-0.356,1.051-1.132,1.051h-2.458
					c-0.78,0-1.12-0.299-1.12-1.051v-1.453c0-0.75,0.34-1.045,1.12-1.045h2.458c0.775,0,1.132,0.295,1.132,1.045V87.979z
					 M235.262,84.476c-0.246,0-0.369-0.227-0.369-0.48c0-0.256,0.13-0.469,0.369-0.469h4.778c0.225,0,0.352,0.213,0.352,0.469
					c0,0.254-0.122,0.48-0.352,0.48H235.262z M238.585,88.18c0.254,0,0.378-0.07,0.378-0.325v-1.197c0-0.26-0.124-0.33-0.381-0.33
					h-2.036c-0.254,0-0.383,0.07-0.379,0.33v1.197c0,0.255,0.125,0.325,0.379,0.325H238.585z M244.159,92.352
					c0,0.933-0.513,1.359-1.602,1.359c-0.482,0-0.977-0.032-1.286-0.116c-0.227-0.042-0.368-0.195-0.37-0.453
					c0-0.039,0-0.098,0.015-0.139c0.04-0.272,0.226-0.382,0.425-0.382c0.027,0,0.071,0,0.097,0.015
					c0.271,0.06,0.684,0.095,0.977,0.095c0.569,0,0.71-0.152,0.71-0.648v-5.685h-2.279c-0.269,0-0.396-0.197-0.396-0.479
					c0-0.271,0.127-0.482,0.396-0.482h2.279v-1.994c0-0.267,0.211-0.408,0.506-0.408c0.314,0,0.529,0.142,0.529,0.408v1.994h1.014
					c0.269,0,0.407,0.211,0.414,0.482c0,0.281-0.146,0.479-0.413,0.479h-1.015V92.352z M241.03,87.376
					c0.168,0,0.298,0.082,0.397,0.255c0.337,0.592,0.745,1.425,0.964,2.149c0.01,0.055,0.022,0.114,0.022,0.168
					c0,0.212-0.124,0.354-0.321,0.438c-0.086,0.043-0.172,0.058-0.244,0.058c-0.196,0-0.34-0.114-0.421-0.325
					c-0.229-0.685-0.596-1.455-0.893-2.049c-0.044-0.07-0.055-0.145-0.055-0.215c0-0.184,0.112-0.337,0.294-0.422
					C240.873,87.39,240.956,87.376,241.03,87.376z"/>
				<path fill="#7D8488" d="M242.567,93.761c-0.403,0-0.952-0.02-1.301-0.112c-0.261-0.051-0.416-0.235-0.416-0.514
					c0-0.056,0-0.108,0.017-0.152c0.039-0.259,0.213-0.411,0.463-0.411c0.034,0,0.082,0,0.12,0.012
					c0.271,0.056,0.671,0.099,0.957,0.099c0.528,0,0.664-0.124,0.664-0.608V86.45h-2.214c-0.126,0-0.23-0.041-0.313-0.117
					c-0.096-0.097-0.151-0.243-0.151-0.424c0-0.322,0.173-0.523,0.443-0.523h2.234v-1.953c0-0.275,0.21-0.451,0.552-0.451
					c0.198,0,0.356,0.057,0.459,0.158c0.082,0.079,0.126,0.188,0.126,0.313v1.934h0.957c0.125,0,0.232,0.041,0.315,0.123
					c0.1,0.101,0.154,0.245,0.154,0.419c0,0.322-0.173,0.522-0.453,0.522h-0.974v5.91C244.208,93.317,243.687,93.761,242.567,93.761
					z M241.352,92.671c-0.205,0-0.347,0.131-0.385,0.351c-0.013,0.044-0.013,0.101-0.013,0.13c0.001,0.217,0.113,0.355,0.317,0.394
					c0.342,0.091,0.882,0.11,1.278,0.11c1.073,0,1.553-0.404,1.553-1.313v-5.996h1.063c0.23,0,0.365-0.161,0.365-0.438
					c0-0.142-0.038-0.262-0.113-0.332c-0.063-0.061-0.142-0.088-0.235-0.088h-1.079v-0.063v-1.994c0-0.09-0.027-0.174-0.087-0.23
					c-0.081-0.075-0.204-0.117-0.373-0.117c-0.293,0-0.467,0.137-0.467,0.367v2.037h-2.318c-0.224,0-0.354,0.165-0.354,0.438
					c0,0.149,0.038,0.27,0.108,0.339c0.057,0.053,0.131,0.08,0.226,0.08h2.339l-0.004,0.061l0.004,5.686
					c0,0.531-0.176,0.69-0.751,0.69c-0.296,0-0.712-0.039-0.987-0.099l-0.013-0.003C241.408,92.671,241.368,92.671,241.352,92.671z
					 M232.68,93.705c-0.104,0-0.24-0.04-0.329-0.075c-0.237-0.096-0.367-0.27-0.367-0.495c0-0.118,0.027-0.237,0.088-0.374
					c0.631-1.389,0.827-2.85,0.935-4.605c0.078-1.416,0.095-3.139,0.101-5.454c-0.006-0.871,0.468-1.331,1.365-1.331h10.48
					c0.14,0,0.26,0.043,0.348,0.131c0.098,0.098,0.15,0.248,0.15,0.424c0,0.331-0.184,0.539-0.48,0.539h-10.125
					c-0.415,0-0.549,0.125-0.549,0.521c0,2.436-0.038,4.09-0.128,5.534c-0.138,2.221-0.395,3.518-0.947,4.778
					C233.101,93.565,232.914,93.705,232.68,93.705z M234.493,81.474c-0.854,0-1.285,0.416-1.285,1.246
					c0,2.315-0.02,4.044-0.102,5.457c-0.101,1.771-0.304,3.24-0.937,4.643c-0.055,0.116-0.081,0.227-0.081,0.332
					c0,0.176,0.096,0.309,0.283,0.383c0.115,0.045,0.22,0.066,0.293,0.066c0.197,0,0.348-0.121,0.454-0.357
					c0.551-1.249,0.811-2.537,0.944-4.746c0.092-1.445,0.125-3.094,0.125-5.53c0-0.442,0.173-0.605,0.64-0.605h10.124
					c0.245,0,0.396-0.169,0.396-0.45c0-0.152-0.038-0.27-0.116-0.344c-0.066-0.064-0.15-0.094-0.262-0.094H234.493z M234.989,93.565
					h-0.075c-0.298,0-0.511-0.184-0.569-0.492v-0.107c0-0.292,0.165-0.462,0.479-0.496c1.076-0.118,2.006-0.248,2.83-0.405
					c0.36-0.785,0.64-1.579,0.806-2.306c0.079-0.26,0.234-0.387,0.471-0.387c0.054,0,0.105,0.01,0.167,0.025l0.025,0.006
					c0.27,0.059,0.432,0.234,0.432,0.47c0,0.042,0,0.088-0.014,0.149c-0.181,0.574-0.418,1.179-0.693,1.816
					c0.397-0.082,0.743-0.16,1.09-0.245l0.034-0.005c0.188-0.041,0.345-0.02,0.448,0.075c0.077,0.071,0.126,0.167,0.144,0.292
					c0.012,0.042,0.014,0.086,0.012,0.137c0.002,0.24-0.133,0.406-0.384,0.479c-1.571,0.416-3.418,0.766-5.195,0.994H234.989z
					 M238.946,89.477c-0.192,0-0.321,0.105-0.383,0.323c-0.173,0.734-0.453,1.546-0.822,2.342l-0.008,0.016l-0.022,0.006
					c-0.833,0.157-1.769,0.291-2.862,0.412c-0.264,0.025-0.399,0.163-0.399,0.408l-0.002,0.096c0.063,0.328,0.31,0.381,0.45,0.381
					h0.069c1.771-0.223,3.613-0.574,5.178-0.99c0.216-0.061,0.322-0.196,0.322-0.396c0-0.044,0-0.075-0.008-0.109
					c-0.015-0.109-0.052-0.182-0.099-0.229c-0.072-0.07-0.176-0.085-0.354-0.046l-0.031,0.005c-0.377,0.094-0.756,0.176-1.204,0.27
					l-0.116,0.023l0.051-0.102c0.294-0.666,0.541-1.307,0.733-1.904c0.008-0.047,0.008-0.084,0.008-0.127
					c0-0.177-0.114-0.303-0.327-0.351l-0.025-0.009C239.033,89.486,238.99,89.477,238.946,89.477z M236.487,91.909
					c-0.235,0-0.396-0.117-0.444-0.32c-0.11-0.438-0.328-1.022-0.588-1.557c-0.015-0.032-0.037-0.1-0.031-0.168
					c-0.006-0.197,0.135-0.369,0.365-0.449c0.091-0.029,0.169-0.043,0.237-0.043c0.207,0,0.358,0.098,0.441,0.279
					c0.257,0.486,0.493,1.1,0.639,1.646c0.015,0.053,0.015,0.09,0.015,0.13c0,0.228-0.148,0.392-0.412,0.453
					C236.644,91.891,236.561,91.909,236.487,91.909z M236.047,89.477c-0.064,0-0.126,0.01-0.211,0.042
					c-0.191,0.063-0.309,0.202-0.309,0.365c0,0.039,0.011,0.09,0.023,0.125c0.259,0.535,0.481,1.125,0.596,1.578
					c0.031,0.148,0.139,0.219,0.321,0.219c0.066,0,0.142-0.018,0.206-0.028c0.219-0.049,0.345-0.179,0.345-0.37
					c0-0.037,0-0.062-0.013-0.093c-0.144-0.546-0.379-1.154-0.629-1.634C236.309,89.544,236.203,89.477,236.047,89.477z
					 M241.86,90.495c-0.219,0-0.387-0.126-0.482-0.367c-0.18-0.543-0.472-1.208-0.889-2.047c-0.04-0.066-0.064-0.146-0.064-0.233
					c0-0.198,0.121-0.37,0.321-0.464c0.097-0.037,0.188-0.063,0.273-0.063c0.19,0,0.343,0.098,0.452,0.287
					c0.203,0.361,0.709,1.294,0.967,2.162c0.016,0.064,0.03,0.124,0.03,0.186c0,0.213-0.124,0.379-0.348,0.477
					C242.042,90.472,241.952,90.495,241.86,90.495z M241.037,87.426c-0.071,0-0.153,0.015-0.234,0.053
					c-0.169,0.079-0.271,0.226-0.271,0.384c0,0.072,0.015,0.131,0.045,0.183c0.423,0.847,0.718,1.52,0.897,2.068
					c0.077,0.185,0.196,0.278,0.366,0.278c0.077,0,0.152-0.02,0.222-0.053c0.201-0.084,0.303-0.221,0.303-0.399
					c0-0.048-0.017-0.104-0.028-0.159c-0.249-0.855-0.753-1.774-0.955-2.131C241.294,87.497,241.186,87.426,241.037,87.426z
					 M238.794,89.083h-2.464c-0.431,0-0.716-0.093-0.906-0.277c-0.184-0.182-0.271-0.449-0.271-0.831v-1.456
					c0-0.765,0.346-1.092,1.156-1.092h2.463c0.436,0,0.728,0.09,0.924,0.281c0.181,0.18,0.271,0.453,0.271,0.828v1.457
					C239.966,88.754,239.613,89.083,238.794,89.083z M236.33,85.531c-0.76,0-1.076,0.294-1.076,1.005v1.457
					c0,0.348,0.081,0.592,0.234,0.748c0.163,0.156,0.433,0.238,0.82,0.238h2.463c0.775,0,1.089-0.293,1.089-1.005v-1.456
					c0-0.346-0.074-0.588-0.234-0.744c-0.165-0.165-0.438-0.243-0.832-0.243H236.33z M238.594,88.233h-2.038
					c-0.166,0-0.278-0.032-0.348-0.1c-0.062-0.064-0.094-0.159-0.094-0.286v-1.205c0-0.323,0.205-0.364,0.425-0.364h2.033
					c0.171,0,0.279,0.029,0.352,0.102c0.063,0.059,0.093,0.156,0.097,0.284v1.198C239.017,88.19,238.812,88.233,238.594,88.233z
					 M236.556,86.38c-0.252,0-0.339,0.07-0.339,0.284v1.198c0,0.1,0.021,0.162,0.058,0.204c0.05,0.043,0.13,0.062,0.265,0.062h2.033
					c0.257,0,0.343-0.068,0.343-0.28v-1.205c0-0.095-0.02-0.159-0.061-0.198c-0.048-0.047-0.13-0.064-0.261-0.064H236.556z
					 M240.05,84.528h-4.781c-0.101,0-0.197-0.041-0.272-0.111c-0.099-0.102-0.156-0.257-0.156-0.432
					c0-0.303,0.165-0.506,0.411-0.506h4.781c0.1,0,0.189,0.035,0.261,0.107c0.099,0.096,0.156,0.246,0.156,0.414
					C240.449,84.257,240.322,84.528,240.05,84.528z M235.269,83.58c-0.224,0-0.323,0.216-0.323,0.421
					c0,0.149,0.042,0.273,0.121,0.35c0.045,0.051,0.109,0.074,0.187,0.074h4.779c0.211,0,0.31-0.229,0.31-0.439
					c0-0.143-0.04-0.265-0.115-0.336c-0.048-0.045-0.104-0.069-0.177-0.069H235.269z"/>
			</g>
			<g>
				<path fill="#7D8488" d="M256.793,86.427c-0.082,3.534-0.509,5.075-1.454,6.816c-0.126,0.227-0.311,0.34-0.51,0.34
					c-0.096,0-0.212-0.03-0.313-0.086c-0.17-0.098-0.279-0.254-0.279-0.453c0-0.113,0.027-0.225,0.109-0.349
					c1.047-1.845,1.404-3.298,1.404-8.345c0-0.824,0.421-1.148,1.299-1.148h8.459c0.845,0,1.228,0.295,1.228,1.104v1.059
					c0,0.781-0.367,1.063-1.228,1.063H256.793z M266.989,87.899c0.243,0,0.369,0.21,0.369,0.465c0,0.269-0.126,0.465-0.369,0.465
					h-5.895c-0.025,0.37-0.07,0.725-0.168,1.076h4.181c0.767,0,1.108,0.255,1.104,0.922c0.004,0.818-0.143,1.508-0.393,2.049
					c-0.243,0.492-0.678,0.846-1.656,0.846c-0.749,0-1.457-0.068-1.938-0.184c-0.214-0.041-0.342-0.224-0.342-0.451
					c0-0.043,0-0.084,0.018-0.139c0.053-0.242,0.239-0.398,0.467-0.398c0.039,0,0.084,0,0.126,0.019
					c0.396,0.093,1.032,0.179,1.471,0.179c0.637,0,0.864-0.143,1.02-0.51c0.113-0.283,0.198-0.662,0.198-1.158
					c0-0.195-0.115-0.268-0.384-0.268h-4.174c-0.604,1.398-1.721,2.445-3.151,3.068c-0.1,0.045-0.195,0.053-0.283,0.053
					c-0.197,0-0.354-0.096-0.453-0.279c-0.041-0.086-0.067-0.184-0.067-0.285c0-0.194,0.097-0.395,0.311-0.465
					c1.811-0.722,2.899-2.117,3.067-4.074h-2.657c-0.243,0-0.37-0.196-0.37-0.465c0-0.255,0.127-0.465,0.37-0.465h3.885v-0.791
					c0-0.242,0.22-0.384,0.527-0.384c0.322,0,0.521,0.142,0.521,0.384v0.791H266.989z M267.134,81.278
					c0.254,0,0.381,0.212,0.381,0.496c0,0.285-0.127,0.495-0.381,0.495h-11.921c-0.258,0-0.384-0.195-0.384-0.495
					c0-0.284,0.129-0.496,0.384-0.496H267.134z M265.238,85.495c0.296,0,0.478-0.086,0.478-0.367v-0.584
					c0.006-0.295-0.182-0.379-0.478-0.379h-7.945c-0.283,0-0.472,0.1-0.472,0.379v0.951H265.238z"/>
				<path fill="#7D8488" d="M257.2,93.988c-0.217,0-0.397-0.113-0.507-0.319c-0.048-0.096-0.078-0.205-0.078-0.307
					c0-0.188,0.09-0.427,0.34-0.511c1.802-0.713,2.853-2.087,3.034-3.971h-2.591c-0.109,0-0.208-0.039-0.282-0.11
					c-0.096-0.092-0.148-0.242-0.148-0.414c0-0.304,0.166-0.509,0.41-0.509h3.849v-0.752c0-0.258,0.224-0.421,0.569-0.421
					c0.202,0,0.365,0.053,0.466,0.152c0.076,0.074,0.113,0.172,0.113,0.286v0.734h4.605c0.111,0,0.205,0.038,0.283,0.108
					c0.095,0.097,0.146,0.245,0.146,0.418c0,0.314-0.158,0.507-0.408,0.507h-5.856c-0.023,0.294-0.062,0.628-0.147,0.974h4.106
					c0.442,0,0.735,0.085,0.925,0.27c0.16,0.158,0.237,0.383,0.237,0.709c0,0.813-0.132,1.505-0.4,2.07
					c-0.289,0.594-0.825,0.869-1.693,0.869c-0.738,0-1.45-0.064-1.951-0.182c-0.231-0.046-0.386-0.254-0.386-0.512
					c0-0.045,0-0.092,0.016-0.153c0.063-0.263,0.26-0.427,0.508-0.427c0.045,0,0.094,0,0.144,0.019
					c0.411,0.099,1.038,0.178,1.454,0.178c0.659,0,0.841-0.157,0.979-0.482c0.128-0.322,0.194-0.71,0.194-1.142
					c0-0.07-0.011-0.113-0.048-0.145c-0.041-0.043-0.128-0.065-0.274-0.065h-4.142c-0.601,1.366-1.691,2.423-3.163,3.063
					C257.411,93.968,257.309,93.988,257.2,93.988z M257.398,87.949c-0.223,0-0.329,0.213-0.329,0.425
					c0,0.146,0.047,0.262,0.115,0.33c0.049,0.05,0.117,0.074,0.193,0.074h2.729l-0.009,0.063c-0.171,1.95-1.238,3.371-3.092,4.108
					c-0.214,0.071-0.283,0.27-0.283,0.432c0,0.082,0.019,0.171,0.064,0.254c0.085,0.164,0.219,0.246,0.396,0.246
					c0.094,0,0.18-0.015,0.266-0.054c1.456-0.634,2.539-1.685,3.129-3.042l0.013-0.028h4.2c0.18,0,0.289,0.034,0.359,0.101
					c0.055,0.055,0.082,0.13,0.082,0.232c0,0.445-0.069,0.839-0.203,1.173c-0.168,0.407-0.426,0.536-1.056,0.536
					c-0.426,0-1.062-0.08-1.485-0.184c-0.037-0.016-0.075-0.016-0.114-0.016c-0.204,0-0.369,0.144-0.423,0.365
					c-0.013,0.051-0.013,0.091-0.013,0.131c0,0.207,0.11,0.355,0.29,0.395c0.488,0.114,1.189,0.178,1.925,0.178
					c0.841,0,1.336-0.255,1.614-0.824c0.262-0.549,0.394-1.233,0.392-2.031c0-0.285-0.067-0.49-0.201-0.622
					c-0.161-0.163-0.429-0.235-0.84-0.235h-4.267l0.021-0.072c0.107-0.377,0.143-0.752,0.169-1.066l0.005-0.039h5.933
					c0.2,0,0.324-0.159,0.324-0.422c0-0.142-0.038-0.26-0.111-0.332c-0.05-0.05-0.117-0.075-0.192-0.075h-4.729v-0.854
					c0-0.083-0.025-0.149-0.079-0.202c-0.081-0.076-0.209-0.119-0.384-0.119c-0.297,0-0.479,0.129-0.479,0.339v0.836H257.398z
					 M254.838,93.636c-0.109,0-0.233-0.035-0.339-0.098c-0.204-0.117-0.314-0.295-0.314-0.504c0-0.131,0.035-0.254,0.118-0.375
					c1.05-1.838,1.394-3.295,1.394-8.318c0-0.826,0.414-1.189,1.344-1.189h8.459c0.479,0,0.803,0.095,1.01,0.301
					c0.188,0.184,0.28,0.468,0.28,0.863v1.061c0,0.785-0.366,1.104-1.273,1.104h-8.67c-0.086,3.641-0.563,5.146-1.46,6.79
					C255.255,93.507,255.061,93.636,254.838,93.636z M257.059,83.254c-0.879,0-1.258,0.333-1.258,1.104
					c0,5.045-0.351,6.513-1.405,8.361c-0.074,0.113-0.107,0.216-0.107,0.334c0,0.212,0.136,0.33,0.252,0.398
					c0.085,0.053,0.188,0.079,0.279,0.079c0.191,0,0.358-0.112,0.472-0.321c0.896-1.639,1.362-3.139,1.451-6.791v-0.045h8.755
					c0.855,0,1.186-0.284,1.186-1.016v-1.061c0-0.364-0.079-0.619-0.239-0.783c-0.187-0.172-0.481-0.261-0.928-0.261H257.059z
					 M265.247,85.546h-8.477v-1.01c0-0.279,0.175-0.424,0.514-0.424h7.943c0.209,0,0.345,0.041,0.43,0.131
					c0.076,0.072,0.111,0.174,0.111,0.311v0.584C265.769,85.503,265.472,85.546,265.247,85.546z M256.876,85.442h8.352
					c0.313,0,0.438-0.096,0.438-0.326v-0.58c0-0.109-0.021-0.178-0.075-0.23c-0.06-0.061-0.174-0.089-0.343-0.089h-7.945
					c-0.292,0-0.426,0.108-0.426,0.337V85.442z M267.144,82.321h-11.919c-0.124,0-0.222-0.035-0.292-0.112
					c-0.104-0.1-0.155-0.251-0.155-0.442c0-0.334,0.164-0.541,0.426-0.541h11.92c0.114,0,0.214,0.043,0.286,0.113
					c0.105,0.104,0.158,0.252,0.158,0.443C267.567,82.117,267.405,82.321,267.144,82.321z M255.218,81.331
					c-0.207,0-0.336,0.17-0.336,0.451c0,0.164,0.043,0.287,0.114,0.359c0.048,0.051,0.119,0.078,0.207,0.078h11.92
					c0.214,0,0.343-0.172,0.343-0.453c0-0.158-0.046-0.283-0.121-0.355c-0.053-0.052-0.117-0.08-0.201-0.08H255.218z"/>
			</g>
			<path fill="#7D8488" d="M149.213,90.257c0.05-0.207,0.097-0.41,0.13-0.61c0.036-0.198,0.063-0.392,0.083-0.593
				c0.069-0.463,0.257-0.693,0.554-0.693c0.38,0,0.569,0.168,0.569,0.508c-0.002,0.09-0.019,0.226-0.046,0.418
				c-0.032,0.193-0.082,0.435-0.152,0.734V90c-0.05,0.272-0.111,0.552-0.189,0.836c-0.084,0.279-0.167,0.577-0.255,0.879
				c-0.092,0.279-0.161,0.501-0.214,0.662c-0.054,0.161-0.107,0.272-0.154,0.337c-0.06,0.088-0.12,0.155-0.186,0.203
				c-0.06,0.047-0.144,0.066-0.239,0.066c-0.253,0-0.428-0.066-0.535-0.203c-0.106-0.137-0.093-0.368,0.044-0.698v0.013
				c0.068-0.191,0.135-0.373,0.202-0.543C148.888,91.378,149.213,90.257,149.213,90.257z M152.255,82.535
				c0,0.057-0.015,0.113-0.046,0.171h1.225c0.166-0.277,0.316-0.559,0.456-0.848c0.139-0.293,0.281-0.608,0.427-0.947
				c0.091-0.21,0.201-0.342,0.335-0.405c0.141-0.063,0.264-0.081,0.381-0.063c0.118,0.021,0.214,0.063,0.291,0.135
				c0.077,0.07,0.116,0.181,0.116,0.334c-0.003,0.074-0.039,0.209-0.113,0.402c-0.075,0.191-0.169,0.414-0.286,0.658
				c-0.068,0.129-0.139,0.266-0.199,0.395c-0.063,0.131-0.126,0.244-0.186,0.34h0.438c0.455,0,0.775,0.092,0.961,0.275
				c0.184,0.182,0.274,0.498,0.271,0.938l-0.013,2.378c-0.002,0.471-0.1,0.793-0.285,0.968c-0.183,0.174-0.503,0.263-0.961,0.263
				h-1.877c0.049,0.063,0.112,0.178,0.187,0.337c0.08,0.162,0.171,0.362,0.276,0.61c0.142,0.348,0.287,0.709,0.438,1.089
				c0.146,0.375,0.272,0.744,0.379,1.104c0.076,0.202,0.1,0.379,0.076,0.521c-0.024,0.143-0.158,0.242-0.398,0.309
				c-0.187,0.045-0.334,0.029-0.444-0.068c-0.111-0.096-0.217-0.271-0.308-0.525c-0.069-0.179-0.14-0.377-0.213-0.594
				c-0.073-0.213-0.157-0.457-0.264-0.722c-0.125-0.327-0.242-0.617-0.346-0.861c-0.104-0.243-0.203-0.453-0.288-0.622
				c-0.066-0.086-0.091-0.182-0.064-0.291c0.023-0.106,0.078-0.202,0.154-0.287h-1.676c-0.435,0-0.74-0.089-0.916-0.263
				c-0.17-0.175-0.259-0.497-0.252-0.968l0.008-2.378c0.005-0.45,0.086-0.767,0.244-0.948c0.163-0.174,0.462-0.266,0.9-0.266h0.464
				c-0.132-0.182-0.283-0.369-0.448-0.559c-0.161-0.193-0.33-0.385-0.506-0.572c-0.104-0.162-0.145-0.301-0.117-0.425
				c0.019-0.121,0.078-0.231,0.164-0.33c0.097-0.101,0.229-0.144,0.387-0.136c0.163,0.01,0.293,0.065,0.399,0.168v-0.016
				c0.078,0.078,0.186,0.193,0.318,0.354c0.136,0.164,0.271,0.332,0.405,0.509c0.137,0.181,0.257,0.349,0.356,0.503
				C152.206,82.361,152.255,82.47,152.255,82.535z M155.4,88.247c0.152,0,0.289,0.07,0.403,0.213
				c0.033,0.039,0.084,0.125,0.16,0.269c0.078,0.14,0.175,0.343,0.287,0.606V89.32c0.125,0.239,0.248,0.501,0.36,0.793
				c0.118,0.296,0.23,0.593,0.344,0.903c0.25,0.648,0.376,1.073,0.372,1.261c0,0.349-0.199,0.524-0.583,0.524
				c-0.416,0-0.622-0.776-0.622-0.776c-0.031-0.103-0.055-0.208-0.084-0.306c-0.032-0.098-0.064-0.2-0.101-0.303v0.07
				c-0.006,0.686-0.086,1.18-0.243,1.484c-0.158,0.308-0.433,0.525-0.818,0.648c-0.342,0.116-0.895,0.172-1.661,0.172
				c-0.786,0-1.349-0.125-1.688-0.371l0.018,0.016c-0.367-0.253-0.547-0.741-0.547-1.453l0.018-2.942
				c0-0.368,0.185-0.553,0.555-0.553c0.38,0,0.565,0.185,0.565,0.553l-0.017,2.857c0,0.224,0.012,0.39,0.049,0.491
				c0.031,0.104,0.104,0.179,0.211,0.211c0.175,0.061,0.483,0.084,0.929,0.084c0.236,0,0.44-0.007,0.622-0.023
				c0.175-0.022,0.326-0.045,0.441-0.074c0.175-0.057,0.297-0.158,0.359-0.31c0.065-0.149,0.098-0.348,0.099-0.595
				c0-0.206,0.016-0.365,0.038-0.481c0.025-0.11,0.058-0.191,0.105-0.243c0.039-0.055,0.098-0.087,0.165-0.092
				c0.069-0.01,0.146-0.016,0.235-0.016c0.172,0,0.313,0.049,0.418,0.154c-0.105-0.273-0.223-0.557-0.351-0.853
				c-0.126-0.298-0.272-0.601-0.439-0.915v0.018c-0.116-0.201-0.181-0.359-0.195-0.477c-0.01-0.117,0.008-0.209,0.062-0.281
				c0.056-0.073,0.126-0.123,0.218-0.156c0.093-0.033,0.182-0.061,0.27-0.076c0.01,0,0.019-0.004,0.023-0.014
				C155.383,88.251,155.389,88.247,155.4,88.247z M155.246,83.993c0.002-0.16-0.066-0.243-0.201-0.243h-4.254
				c-0.116,0-0.173,0.087-0.176,0.251l-0.008,2.228c0,0.074,0.014,0.131,0.048,0.179c0.033,0.052,0.072,0.076,0.123,0.076h4.254
				c0.135,0,0.201-0.089,0.201-0.255L155.246,83.993z"/>
			<path fill="#7D8488" d="M147.227,90.726c-1.071,0.437-2.429,0.834-3.588,1.076c-0.058,0.014-0.099,0.014-0.144,0.014
				c-0.254,0-0.423-0.183-0.495-0.48c-0.014-0.072-0.027-0.134-0.027-0.184c0-0.252,0.141-0.426,0.367-0.454
				c0.228-0.042,0.466-0.083,0.707-0.131v-8.438h-0.678c-0.256,0-0.383-0.197-0.383-0.481c0-0.282,0.127-0.495,0.383-0.495h5.442
				c0.241,0,0.385,0.213,0.385,0.495c0,0.284-0.144,0.481-0.385,0.481h-0.575v11.455c0,0.254-0.214,0.395-0.512,0.395
				c-0.326,0-0.498-0.141-0.498-0.395V90.726z M145.052,87.925v2.419c0.735-0.196,1.47-0.396,2.175-0.663v-1.756H145.052z
				 M145.052,85.028v2.008h2.175v-2.008H145.052z M145.052,82.128v2.008h2.175v-2.008H145.052z"/>
		</g>
	</g>
	<g>
		<path fill="#E6002D" d="M25.378,20.832c0.045,0,2.534-0.469,7.59-1.396c0.509-0.1,0.625,0.173,0.673,0.308
			c0.319,0.885,0.664,1.775,1.038,2.668c1.061,2.547,2.229,4.833,3.494,6.854c0.182,0.288,0.347,0.952-0.26,1.271
			c-0.613,0.321-1.214,0.63-1.785,0.925l-7.195,3.697c-1.495,0.758-2.102,2.627-1.361,4.162c0.523,1.102,1.59,1.734,2.694,1.734
			c0.453,0,0.911-0.105,1.339-0.326l7.194-3.689c1.127-0.58,2.338-1.203,3.591-1.842c0.114-0.059,0.442-0.085,0.667,0.133
			c3.767,3.537,8.106,5.367,12.904,5.367h5.848c1.664,0,3.009-1.395,3.009-3.113c0-1.715-1.345-3.109-3.009-3.109h-5.848
			c-2.536,0-4.769-0.775-6.736-2.064c-0.396-0.326-0.229-0.59,0.017-0.74c1.795-0.92,3.542-1.824,5.148-2.648
			c5.63-2.904,8.538-8.146,7.068-12.753c-0.585-1.851-3.441-7.724-15.246-5.577c-2.996,0.545-5.655,1.033-8.024,1.465
			c-0.3,0.036-0.587-0.024-0.723-0.435c-1.085-4.145-1.522-7.235-1.54-7.364c-0.227-1.705-1.739-2.891-3.393-2.664
			c-1.646,0.232-2.798,1.803-2.575,3.505c0.031,0.209,0.445,3.267,1.524,7.5c0.087,0.426-0.226,0.728-0.417,0.763
			c-4.489,0.83-6.711,1.245-6.756,1.246c-1.629,0.313-2.72,1.923-2.426,3.621C22.181,20.017,23.747,21.137,25.378,20.832z
			 M47.256,16.824c5.577-1.02,7.482,0.234,7.839,1.354c0.35,1.088,0.552,3.365-3.39,5.28c-2.147,1.039-4.527,2.254-6.914,3.496
			c-0.439,0.151-0.822,0.103-1.194-0.443c-1.55-2.355-2.818-5.004-3.842-7.642c-0.082-0.212-0.134-0.604,0.406-0.751
			C42.291,17.727,44.651,17.294,47.256,16.824z"/>
		<path fill="#E6002D" d="M72.287,15.305c0,0,10.915,0,11.363,0s0.751,0.424,0.751,0.711c0,0.285,0,0.809,0,0.809
			c0,1.664,1.349,3.006,3.016,3.006c1.655,0,3.004-1.342,3.004-3.006c0,0,0-0.365,0-0.777c0-0.414,0.253-0.742,0.698-0.742
			c3.157,0,15.96,0,16.38,0c0.576,0,0.693,0.553,0.693,0.742s0,0.777,0,0.777c0,1.664,1.351,3.006,3.01,3.006
			s3.005-1.342,3.005-3.006c0,0,0-0.262,0-0.809c0-0.479,0.335-0.711,0.619-0.711c0.283,0,11.055,0,11.055,0
			c1.667,0,3.013-1.35,3.013-3.012c0-1.664-1.346-3.012-3.013-3.012c0,0-10.768,0-11.079,0c-0.311,0-0.595-0.278-0.595-0.658
			c0-0.381,0-1.082,0-1.082c0-1.658-1.346-3.007-3.005-3.007s-3.01,1.349-3.01,3.007c0,0,0,0.658,0,1.013
			c0,0.432-0.261,0.728-0.739,0.728c-0.374-0.002-12.838-0.002-16.203-0.002c-0.481,0-0.829-0.318-0.829-0.796
			c0-0.388,0-0.942,0-0.942c0-1.658-1.349-3.007-3.004-3.007c-1.667,0-3.016,1.349-3.016,3.007c0,0,0,0.655,0,0.974
			c0,0.319-0.4,0.767-0.91,0.767c-0.511,0-11.204,0-11.204,0c-1.663,0-3.01,1.348-3.01,3.012
			C69.277,13.955,70.624,15.305,72.287,15.305z"/>
		<path fill="#E6002D" d="M126.203,20.356c-0.544-1.571-2.259-2.397-3.83-1.851c-0.127,0.045-12.807,4.361-34.988,4.361H74.727
			c-1.66,0-3.007,1.344-3.007,3.006s1.347,3.012,3.007,3.012h12.658c23.312,0,36.429-4.505,36.979-4.7
			C125.931,23.635,126.751,21.924,126.203,20.356z"/>
		<path fill="#E6002D" d="M75.758,31.203c-1.396,0.907-1.792,2.771-0.885,4.166l3.869,5.947c0.571,0.889,1.537,1.373,2.521,1.373
			c0.564,0,1.136-0.158,1.637-0.484c1.396-0.908,1.792-2.771,0.884-4.166l-3.863-5.947C79.019,30.697,77.151,30.305,75.758,31.203z"
			/>
		<path fill="#E6002D" d="M94.275,30.477c-1.415,0.873-1.854,2.725-0.976,4.139l3.016,4.55c0.565,0.915,1.557,1.429,2.561,1.429
			c0.54,0,1.09-0.153,1.579-0.449c1.42-0.88,1.854-2.732,0.98-4.146l-3.019-4.545C97.543,30.039,95.688,29.6,94.275,30.477z"/>
		<path fill="#E6002D" d="M118.159,29.001l-6.398,9.148c-0.933,1.372-0.578,3.247,0.793,4.186c0.517,0.354,1.105,0.522,1.69,0.522
			c0.964,0,1.91-0.462,2.491-1.314l6.4-9.156c0.939-1.374,0.585-3.246-0.796-4.18C120.972,27.27,119.098,27.627,118.159,29.001z"/>
		<path fill="#E6002D" d="M128.647,63.686c-10.933-1.827-19.503-8.885-23.779-13.023c-0.351-0.366-0.281-0.768,0.19-0.768
			c0.468,0,22.347,0,22.347,0c1.66,0,3.004-1.355,3.004-3.012c0-1.666-1.344-3.006-3.004-3.006c0,0-24.584,0-24.823,0
			c-0.24,0-0.385-0.239-0.421-0.353c-0.385-1.22-1.52-2.097-2.863-2.097c-1.368,0-2.517,0.908-2.88,2.16
			c-0.029,0.093-0.169,0.289-0.408,0.289c-0.154,0-24.798,0-24.798,0c-1.662,0-3.013,1.34-3.013,3.006
			c0,1.656,1.351,3.012,3.013,3.012c0,0,21.518,0,22.188,0c0.672,0,0.541,0.589,0.197,0.916
			c-5.134,4.907-16.604,14.419-28.36,14.422c-0.077,0-1.997,0-1.997,0c-2.479,0-10.083-0.145-10.083-10.186c0,0,0-3.989,0-4.563
			c0-0.574,0.301-0.59,0.588-0.59c0.286,0,7.878,0,7.878,0c1.667,0,3.013-1.355,3.013-3.012c0-1.666-1.346-3.006-3.013-3.006H24.247
			c-1.664,0-3.017,1.34-3.017,3.006c0,1.656,1.353,3.012,3.017,3.012c0,0,7.479,0,8.207,0c0.588,0,0.751,0.145,0.751,0.625
			c0,0.53,0,4.508,0,4.508c0,5.893-4.156,10.205-11.4,10.205c-1.658,0-3.009,1.35-3.009,3.01c0,1.662,1.351,3.01,3.009,3.01
			c12.855,0,17.899-8.243,17.899-15.301c0,0,0-5.166,0-5.434c0-0.479,0.279-0.623,0.543-0.623c0.263,0,5.637,0,6.043,0
			c0.408,0,0.577,0.217,0.577,0.6s0,4.553,0,4.553c0,13.449,8.602,16.205,16.372,16.205c0,0,1.92,0,1.997,0
			c7.892,0,16.968-3.301,25.479-9.805c1.875-1.432,3.539-2.86,4.963-4.164c0.308-0.281,0.864-0.318,0.864,0.195
			c0,5.689-0.255,12.363-0.255,12.363c0,1.664,1.343,3.008,3.011,3.008c1.664,0,3.012-1.344,3.012-3.008c0,0-0.305-6.73-0.305-12.46
			c0-0.542,0.518-0.647,0.799-0.394c3.992,3.619,9.385,7.898,16.891,10.597c1.859,0.666,6.332,2.078,8.464,2.078
			c1.443,0,2.714-1.04,2.961-2.515C131.392,65.51,130.292,63.967,128.647,63.686z"/>
		<path fill="#E6002D" d="M20.063,15.583c0-2.177-1.775-3.955-3.963-3.955H3.955C1.773,11.628,0,13.406,0,15.583V54.33
			c0,2.182,1.773,3.955,3.955,3.955h12.146c2.188,0,3.963-1.773,3.963-3.955V15.583z M14.041,51.545
			c0,0.445-0.361,0.805-0.811,0.805H6.831c-0.443,0-0.809-0.359-0.809-0.805V38.807c0-0.453,0.365-0.811,0.809-0.811h6.399
			c0.449,0,0.811,0.357,0.811,0.811V51.545z M14.041,31.188c0,0.447-0.361,0.803-0.811,0.803H6.831
			c-0.443,0-0.809-0.355-0.809-0.803V18.444c0-0.446,0.365-0.807,0.809-0.807h6.399c0.449,0,0.811,0.36,0.811,0.807V31.188z"/>
	</g>
	<g>
		<g>
			<path fill="#838689" d="M142.736,19.729c1.292,0.704,3.317,1.409,5.52,1.409c2.143,0,3.288-0.822,3.288-2.114
				c0-1.174-0.969-1.879-3.582-2.642c-3.493-0.999-6.019-2.701-6.019-5.96c0-3.435,3.083-5.989,7.897-5.989
				c2.584,0,4.345,0.47,5.695,1.086l-1.115,3.699c-0.852-0.382-2.466-1.027-4.668-1.027c-2.055,0-3.023,0.852-3.023,1.85
				c0,1.292,1.262,1.82,3.992,2.701c3.787,1.203,5.637,2.965,5.637,6.019c0,3.17-2.495,6.165-8.484,6.165
				c-2.437,0-4.932-0.676-6.165-1.38L142.736,19.729z"/>
			<path fill="#838689" d="M157.973,14.884c0-1.85-0.059-3.405-0.117-4.668h3.934l0.177,2.026h0.117
				c0.558-0.852,1.85-2.378,4.639-2.378c1.938,0,3.522,1.027,4.198,2.612h0.059c0.587-0.822,1.263-1.409,1.996-1.85
				c0.852-0.499,1.791-0.763,2.965-0.763c2.818,0,5.226,1.908,5.226,6.487v8.221h-4.521v-7.574c0-2.231-0.822-3.405-2.378-3.405
				c-1.146,0-1.938,0.792-2.261,1.644c-0.117,0.353-0.176,0.822-0.176,1.175v8.161h-4.521v-7.721c0-2.085-0.822-3.259-2.319-3.259
				c-1.351,0-2.055,1.027-2.319,1.702c-0.146,0.382-0.176,0.793-0.176,1.146v8.132h-4.521V14.884z"/>
			<path fill="#838689" d="M196.256,21.02c0,1.439,0.088,2.789,0.235,3.553h-4.228l-0.265-1.438h-0.117
				c-0.998,1.174-2.584,1.791-4.434,1.791c-3.141,0-4.902-2.202-4.902-4.404c0-3.729,3.347-5.577,9.042-5.577v-0.147
				c0-0.616-0.322-1.791-2.848-1.791c-1.556,0-3.288,0.559-4.286,1.146l-0.852-2.936c1.058-0.617,3.112-1.351,5.931-1.351
				c4.932,0,6.723,2.729,6.723,6.253V21.02z M191.735,17.85c-2.73-0.029-4.551,0.587-4.551,2.201c0,1.058,0.734,1.645,1.908,1.645
				c1.233,0,2.261-0.852,2.554-1.791c0.06-0.264,0.089-0.558,0.089-0.793V17.85z"/>
			<path fill="#838689" d="M198.604,15.09c0-2.349-0.029-3.67-0.117-4.874h3.992l0.147,2.849h0.117c0.764-2.29,2.73-3.2,4.228-3.2
				c0.411,0,0.616,0,0.998,0.088v4.315c-0.382-0.088-0.793-0.146-1.351-0.146c-1.908,0-3.023,0.969-3.288,2.349
				c-0.059,0.264-0.059,0.558-0.059,0.852v7.251h-4.668V15.09z"/>
			<path fill="#838689" d="M215.514,6.282v3.934h3.347v3.494h-3.347v4.727c0,1.762,0.353,2.672,1.85,2.672
				c0.734,0,0.998-0.029,1.438-0.147l0.059,3.523c-0.616,0.234-1.762,0.44-3.082,0.44c-1.557,0-2.848-0.587-3.582-1.351
				c-0.822-0.91-1.233-2.349-1.233-4.315V13.71h-1.967v-3.494h1.967V7.486L215.514,6.282z"/>
			<path fill="#838689" d="M223.588,18.848c0.146,1.732,2.172,2.612,4.403,2.612c1.644,0,2.994-0.176,4.374-0.646l0.617,3.112
				c-1.645,0.675-3.523,0.998-5.637,0.998c-5.196,0-8.191-2.937-8.191-7.398c0-3.229,2.202-7.662,7.751-7.662
				c5.196,0,6.928,4.021,6.928,7.31c0,0.676-0.088,1.38-0.176,1.674H223.588z M229.459,15.677c0-0.822-0.47-2.789-2.818-2.789
				c-2.084,0-2.965,1.674-3.112,2.789H229.459z"/>
			<path fill="#838689" d="M235.184,14.884c0-1.85-0.059-3.405-0.117-4.668h4.052l0.205,2.085h0.117
				c0.528-0.852,2.056-2.437,4.756-2.437c2.995,0,5.578,1.879,5.578,6.429v8.279h-4.668v-7.604c0-2.085-0.792-3.376-2.554-3.376
				c-1.438,0-2.231,0.998-2.555,1.819c-0.117,0.265-0.146,0.676-0.146,1.028v8.132h-4.668V14.884z"/>
			<path fill="#838689" d="M147.728,48.42v-8.279l-6.87-11.508h5.461l2.23,4.785c0.676,1.468,1.146,2.378,1.674,3.641h0.059
				c0.499-1.175,1.027-2.231,1.674-3.611l2.261-4.814h5.401l-7.222,11.332v8.455H147.728z"/>
			<path fill="#838689" d="M172.006,41.051c0,5.021-3.846,7.722-8.279,7.722c-4.433,0-8.073-2.789-8.073-7.428
				c0-4.463,3.171-7.662,8.396-7.662C168.776,33.683,172.006,36.765,172.006,41.051z M160.526,41.228
				c0,2.466,1.263,4.257,3.348,4.257c1.908,0,3.259-1.527,3.259-4.286c0-2.144-0.97-4.228-3.259-4.228
				C161.496,36.971,160.526,39.055,160.526,41.228z"/>
			<path fill="#838689" d="M188.006,43.752c0,1.967,0.059,3.523,0.117,4.668h-4.051l-0.206-2.202h-0.088
				c-0.528,0.881-1.938,2.555-4.902,2.555c-2.966,0-5.432-1.762-5.432-6.342v-8.367h4.668v7.546c0,2.172,0.764,3.435,2.524,3.435
				c1.409,0,2.231-0.969,2.555-1.762c0.117-0.265,0.146-0.558,0.146-0.852v-8.367h4.668V43.752z"/>
			<path fill="#838689" d="M190.413,38.938c0-2.349-0.029-3.67-0.117-4.874h3.992l0.147,2.849h0.117c0.764-2.29,2.73-3.2,4.228-3.2
				c0.411,0,0.616,0,0.998,0.088v4.315c-0.382-0.088-0.793-0.146-1.351-0.146c-1.908,0-3.023,0.969-3.288,2.349
				c-0.059,0.264-0.059,0.558-0.059,0.852v7.251h-4.668V38.938z"/>
			<path fill="#838689" d="M142.384,52.48h4.639v8.689h0.059c0.47-0.704,0.998-1.38,1.498-2.025l5.107-6.664h5.901l-7.251,8.367
				l7.691,11.42h-5.52l-5.549-8.631l-1.938,2.201v6.43h-4.639V52.48z"/>
			<path fill="#838689" d="M165.224,53.86c0,1.232-0.939,2.261-2.524,2.261c-1.526,0-2.466-1.028-2.466-2.261
				c0-1.292,0.939-2.29,2.495-2.29S165.194,52.568,165.224,53.86z M160.38,72.268V57.911h4.668v14.356H160.38z"/>
			<path fill="#838689" d="M172.593,53.978v3.934h3.347v3.494h-3.347v4.727c0,1.762,0.353,2.672,1.85,2.672
				c0.734,0,0.998-0.029,1.438-0.147l0.059,3.523c-0.616,0.234-1.762,0.44-3.082,0.44c-1.557,0-2.848-0.587-3.582-1.351
				c-0.822-0.91-1.233-2.349-1.233-4.315v-5.549h-1.967v-3.494h1.967v-2.729L172.593,53.978z"/>
			<path fill="#838689" d="M188.886,71.856c-0.939,0.44-2.643,0.764-4.521,0.764c-4.99,0-8.132-2.937-8.132-7.398
				c0-4.11,2.965-7.662,8.749-7.662c1.262,0,2.73,0.205,3.846,0.616l-0.764,3.435c-0.616-0.293-1.497-0.528-2.848-0.528
				c-2.524,0-4.198,1.645-4.169,3.935c0,2.671,1.997,3.992,4.286,3.992c1.233,0,2.173-0.205,2.937-0.528L188.886,71.856z"/>
			<path fill="#838689" d="M190.178,51.247h4.668v8.455h0.059c0.499-0.675,1.175-1.203,1.938-1.556
				c0.705-0.382,1.586-0.587,2.437-0.587c2.937,0,5.49,1.879,5.49,6.429v8.279h-4.668v-7.604c0-2.085-0.792-3.376-2.612-3.376
				c-1.38,0-2.173,0.88-2.496,1.644c-0.146,0.294-0.146,0.616-0.146,0.939v8.396h-4.668V51.247z"/>
			<path fill="#838689" d="M210.64,66.543c0.146,1.732,2.172,2.612,4.403,2.612c1.644,0,2.994-0.176,4.374-0.646l0.617,3.112
				c-1.645,0.675-3.523,0.998-5.637,0.998c-5.197,0-8.191-2.937-8.191-7.398c0-3.229,2.202-7.662,7.751-7.662
				c5.196,0,6.928,4.021,6.928,7.31c0,0.676-0.088,1.38-0.176,1.674H210.64z M216.511,63.372c0-0.822-0.47-2.789-2.818-2.789
				c-2.084,0-2.965,1.674-3.112,2.789H216.511z"/>
			<path fill="#838689" d="M222.235,62.579c0-1.85-0.059-3.405-0.117-4.668h4.051l0.206,2.085h0.117
				c0.528-0.852,2.056-2.437,4.756-2.437c2.995,0,5.578,1.879,5.578,6.429v8.279h-4.668v-7.604c0-2.085-0.792-3.376-2.554-3.376
				c-1.438,0-2.231,0.998-2.555,1.819c-0.117,0.265-0.146,0.676-0.146,1.028v8.132h-4.668V62.579z"/>
		</g>
	</g>
</g>
</svg>
